<mxfile host="65bd71144e">
    <diagram id="2t32YPq3aGWLwvXMuHdm" name="Page-1">
        <mxGraphModel dx="860" dy="968" grid="1" gridSize="10" guides="1" tooltips="1" connect="1" arrows="1" fold="1" page="1" pageScale="1" pageWidth="827" pageHeight="1169" background="#ffffff" math="0" shadow="0">
            <root>
                <mxCell id="0"/>
                <mxCell id="1" parent="0"/>
                <mxCell id="4" value="Offset" style="whiteSpace=wrap;html=1;strokeColor=#000000;fontColor=#000000;fillColor=#BFBFBF;" parent="1" vertex="1">
                    <mxGeometry x="640" y="400" width="120" height="20" as="geometry"/>
                </mxCell>
                <mxCell id="53" value="&lt;span&gt;页&lt;/span&gt;" style="text;html=1;align=center;verticalAlign=middle;resizable=0;points=[];autosize=1;strokeColor=none;labelBorderColor=none;fontColor=#000000;" parent="1" vertex="1">
                    <mxGeometry x="714.5" y="441" width="30" height="20" as="geometry"/>
                </mxCell>
                <mxCell id="64" value="线性地址" style="text;align=center;verticalAlign=middle;resizable=0;points=[];autosize=1;labelBorderColor=none;html=1;fontColor=#000000;" parent="1" vertex="1">
                    <mxGeometry x="430" y="380" width="60" height="20" as="geometry"/>
                </mxCell>
                <mxCell id="65" value="Table" style="whiteSpace=wrap;html=1;strokeColor=#000000;fontColor=#000000;fillColor=#BFBFBF;" vertex="1" parent="1">
                    <mxGeometry x="520" y="400" width="120" height="20" as="geometry"/>
                </mxCell>
                <mxCell id="66" value="Middle Dir" style="whiteSpace=wrap;html=1;strokeColor=#000000;fontColor=#000000;fillColor=#BFBFBF;" vertex="1" parent="1">
                    <mxGeometry x="400" y="400" width="120" height="20" as="geometry"/>
                </mxCell>
                <mxCell id="67" value="Upper Dir" style="whiteSpace=wrap;html=1;strokeColor=#000000;fontColor=#000000;fillColor=#BFBFBF;" vertex="1" parent="1">
                    <mxGeometry x="280" y="400" width="120" height="20" as="geometry"/>
                </mxCell>
                <mxCell id="68" value="Global Dir" style="whiteSpace=wrap;html=1;strokeColor=#000000;fontColor=#000000;fillColor=#BFBFBF;" vertex="1" parent="1">
                    <mxGeometry x="160" y="400" width="120" height="20" as="geometry"/>
                </mxCell>
                <mxCell id="69" value="" style="whiteSpace=wrap;html=1;fillColor=none;strokeColor=#000000;fontColor=#000000;" vertex="1" parent="1">
                    <mxGeometry x="699" y="461" width="61" height="20" as="geometry"/>
                </mxCell>
                <mxCell id="70" value="" style="whiteSpace=wrap;html=1;strokeColor=#000000;fontColor=#000000;fillColor=#BFBFBF;" vertex="1" parent="1">
                    <mxGeometry x="699" y="481" width="61" height="20" as="geometry"/>
                </mxCell>
                <mxCell id="71" value="" style="whiteSpace=wrap;html=1;fillColor=none;strokeColor=#000000;fontColor=#000000;" vertex="1" parent="1">
                    <mxGeometry x="699" y="501" width="61" height="20" as="geometry"/>
                </mxCell>
                <mxCell id="72" value="" style="verticalLabelPosition=bottom;verticalAlign=top;html=1;shape=mxgraph.flowchart.summing_function;" vertex="1" parent="1">
                    <mxGeometry x="660" y="481" width="20" height="20" as="geometry"/>
                </mxCell>
                <mxCell id="74" value="" style="endArrow=classic;html=1;shadow=0;align=center;strokeColor=#000000;exitX=0.25;exitY=1;exitDx=0;exitDy=0;entryX=0.5;entryY=0;entryDx=0;entryDy=0;entryPerimeter=0;" edge="1" parent="1" source="4" target="72">
                    <mxGeometry width="50" height="50" relative="1" as="geometry">
                        <mxPoint x="80" y="540" as="sourcePoint"/>
                        <mxPoint x="80" y="310" as="targetPoint"/>
                    </mxGeometry>
                </mxCell>
                <mxCell id="75" value="" style="endArrow=classic;html=1;shadow=0;align=center;entryX=0;entryY=0.5;entryDx=0;entryDy=0;exitX=1;exitY=0.5;exitDx=0;exitDy=0;strokeColor=#000000;exitPerimeter=0;" edge="1" parent="1" source="72" target="70">
                    <mxGeometry width="50" height="50" relative="1" as="geometry">
                        <mxPoint x="80" y="271" as="sourcePoint"/>
                        <mxPoint x="130" y="271" as="targetPoint"/>
                    </mxGeometry>
                </mxCell>
                <mxCell id="76" value="&lt;span&gt;页表&lt;/span&gt;" style="text;html=1;align=center;verticalAlign=middle;resizable=0;points=[];autosize=1;strokeColor=none;labelBorderColor=none;fontColor=#000000;" vertex="1" parent="1">
                    <mxGeometry x="590" y="471" width="40" height="20" as="geometry"/>
                </mxCell>
                <mxCell id="77" value="" style="whiteSpace=wrap;html=1;fillColor=none;strokeColor=#000000;fontColor=#000000;" vertex="1" parent="1">
                    <mxGeometry x="580" y="491" width="60" height="20" as="geometry"/>
                </mxCell>
                <mxCell id="78" value="" style="whiteSpace=wrap;html=1;strokeColor=#000000;fontColor=#000000;fillColor=#BFBFBF;" vertex="1" parent="1">
                    <mxGeometry x="580" y="511" width="60" height="20" as="geometry"/>
                </mxCell>
                <mxCell id="79" value="" style="whiteSpace=wrap;html=1;fillColor=none;strokeColor=#000000;fontColor=#000000;" vertex="1" parent="1">
                    <mxGeometry x="580" y="531" width="60" height="20" as="geometry"/>
                </mxCell>
                <mxCell id="80" value="" style="verticalLabelPosition=bottom;verticalAlign=top;html=1;shape=mxgraph.flowchart.summing_function;" vertex="1" parent="1">
                    <mxGeometry x="540" y="511" width="20" height="20" as="geometry"/>
                </mxCell>
                <mxCell id="81" value="" style="endArrow=classic;html=1;shadow=0;align=center;entryX=0;entryY=0.5;entryDx=0;entryDy=0;exitX=1;exitY=0.5;exitDx=0;exitDy=0;strokeColor=#000000;exitPerimeter=0;" edge="1" source="80" target="78" parent="1">
                    <mxGeometry width="50" height="50" relative="1" as="geometry">
                        <mxPoint x="-40" y="380" as="sourcePoint"/>
                        <mxPoint x="10" y="380" as="targetPoint"/>
                    </mxGeometry>
                </mxCell>
                <mxCell id="82" value="" style="endArrow=classic;html=1;shadow=0;align=center;strokeColor=#000000;exitX=0.25;exitY=1;exitDx=0;exitDy=0;entryX=0.5;entryY=0;entryDx=0;entryDy=0;entryPerimeter=0;" edge="1" target="80" parent="1" source="65">
                    <mxGeometry width="50" height="50" relative="1" as="geometry">
                        <mxPoint x="560" y="510" as="sourcePoint"/>
                        <mxPoint y="400" as="targetPoint"/>
                    </mxGeometry>
                </mxCell>
                <mxCell id="83" value="" style="endArrow=classic;html=1;shadow=0;align=center;entryX=0;entryY=1;entryDx=0;entryDy=0;exitX=1;exitY=0.5;exitDx=0;exitDy=0;strokeColor=#000000;" edge="1" parent="1" source="78" target="71">
                    <mxGeometry width="50" height="50" relative="1" as="geometry">
                        <mxPoint x="675" y="560.6" as="sourcePoint"/>
                        <mxPoint x="694" y="560.6" as="targetPoint"/>
                    </mxGeometry>
                </mxCell>
                <mxCell id="84" value="" style="endArrow=classic;html=1;shadow=0;align=center;entryX=0.5;entryY=1;entryDx=0;entryDy=0;strokeColor=#000000;entryPerimeter=0;" edge="1" parent="1" target="72">
                    <mxGeometry width="50" height="50" relative="1" as="geometry">
                        <mxPoint x="640" y="521" as="sourcePoint"/>
                        <mxPoint x="709" y="531" as="targetPoint"/>
                        <Array as="points">
                            <mxPoint x="670" y="521"/>
                        </Array>
                    </mxGeometry>
                </mxCell>
                <mxCell id="85" value="" style="whiteSpace=wrap;html=1;fillColor=none;strokeColor=#000000;fontColor=#000000;" vertex="1" parent="1">
                    <mxGeometry x="459" y="521" width="61" height="20" as="geometry"/>
                </mxCell>
                <mxCell id="86" value="" style="whiteSpace=wrap;html=1;strokeColor=#000000;fontColor=#000000;fillColor=#BFBFBF;" vertex="1" parent="1">
                    <mxGeometry x="459" y="541" width="61" height="20" as="geometry"/>
                </mxCell>
                <mxCell id="87" value="" style="whiteSpace=wrap;html=1;fillColor=none;strokeColor=#000000;fontColor=#000000;" vertex="1" parent="1">
                    <mxGeometry x="459" y="561" width="61" height="20" as="geometry"/>
                </mxCell>
                <mxCell id="88" value="" style="verticalLabelPosition=bottom;verticalAlign=top;html=1;shape=mxgraph.flowchart.summing_function;" vertex="1" parent="1">
                    <mxGeometry x="420" y="541" width="20" height="20" as="geometry"/>
                </mxCell>
                <mxCell id="89" value="" style="endArrow=classic;html=1;shadow=0;align=center;entryX=0;entryY=0.5;entryDx=0;entryDy=0;exitX=1;exitY=0.5;exitDx=0;exitDy=0;strokeColor=#000000;exitPerimeter=0;" edge="1" source="88" target="86" parent="1">
                    <mxGeometry width="50" height="50" relative="1" as="geometry">
                        <mxPoint x="-160" y="331" as="sourcePoint"/>
                        <mxPoint x="-110" y="331" as="targetPoint"/>
                    </mxGeometry>
                </mxCell>
                <mxCell id="90" value="&lt;span&gt;页上级目录&lt;/span&gt;" style="text;html=1;align=center;verticalAlign=middle;resizable=0;points=[];autosize=1;strokeColor=none;labelBorderColor=none;fontColor=#000000;" vertex="1" parent="1">
                    <mxGeometry x="330" y="531" width="80" height="20" as="geometry"/>
                </mxCell>
                <mxCell id="91" value="" style="whiteSpace=wrap;html=1;fillColor=none;strokeColor=#000000;fontColor=#000000;" vertex="1" parent="1">
                    <mxGeometry x="340" y="551" width="60" height="20" as="geometry"/>
                </mxCell>
                <mxCell id="92" value="" style="whiteSpace=wrap;html=1;strokeColor=#000000;fontColor=#000000;fillColor=#BFBFBF;" vertex="1" parent="1">
                    <mxGeometry x="340" y="571" width="60" height="20" as="geometry"/>
                </mxCell>
                <mxCell id="93" value="" style="whiteSpace=wrap;html=1;fillColor=none;strokeColor=#000000;fontColor=#000000;" vertex="1" parent="1">
                    <mxGeometry x="340" y="591" width="60" height="20" as="geometry"/>
                </mxCell>
                <mxCell id="94" value="" style="verticalLabelPosition=bottom;verticalAlign=top;html=1;shape=mxgraph.flowchart.summing_function;" vertex="1" parent="1">
                    <mxGeometry x="300" y="571" width="20" height="20" as="geometry"/>
                </mxCell>
                <mxCell id="95" value="" style="endArrow=classic;html=1;shadow=0;align=center;entryX=0;entryY=0.5;entryDx=0;entryDy=0;exitX=1;exitY=0.5;exitDx=0;exitDy=0;strokeColor=#000000;exitPerimeter=0;" edge="1" source="94" target="92" parent="1">
                    <mxGeometry width="50" height="50" relative="1" as="geometry">
                        <mxPoint x="-280" y="440" as="sourcePoint"/>
                        <mxPoint x="-230" y="440" as="targetPoint"/>
                    </mxGeometry>
                </mxCell>
                <mxCell id="96" value="" style="endArrow=classic;html=1;shadow=0;align=center;entryX=0;entryY=1;entryDx=0;entryDy=0;exitX=1;exitY=0.5;exitDx=0;exitDy=0;strokeColor=#000000;" edge="1" source="92" target="87" parent="1">
                    <mxGeometry width="50" height="50" relative="1" as="geometry">
                        <mxPoint x="435" y="620.6" as="sourcePoint"/>
                        <mxPoint x="454" y="620.6" as="targetPoint"/>
                    </mxGeometry>
                </mxCell>
                <mxCell id="97" value="" style="endArrow=classic;html=1;shadow=0;align=center;entryX=0.5;entryY=1;entryDx=0;entryDy=0;strokeColor=#000000;entryPerimeter=0;" edge="1" target="88" parent="1">
                    <mxGeometry width="50" height="50" relative="1" as="geometry">
                        <mxPoint x="400" y="581" as="sourcePoint"/>
                        <mxPoint x="469" y="591" as="targetPoint"/>
                        <Array as="points">
                            <mxPoint x="430" y="581"/>
                        </Array>
                    </mxGeometry>
                </mxCell>
                <mxCell id="98" value="" style="endArrow=classic;html=1;shadow=0;align=center;strokeColor=#000000;exitX=0.25;exitY=1;exitDx=0;exitDy=0;entryX=0.5;entryY=0;entryDx=0;entryDy=0;entryPerimeter=0;" edge="1" target="94" parent="1" source="67">
                    <mxGeometry width="50" height="50" relative="1" as="geometry">
                        <mxPoint x="310" y="481" as="sourcePoint"/>
                        <mxPoint x="-240" y="461" as="targetPoint"/>
                    </mxGeometry>
                </mxCell>
                <mxCell id="99" value="" style="endArrow=classic;html=1;shadow=0;align=center;strokeColor=#000000;exitX=0.25;exitY=1;exitDx=0;exitDy=0;entryX=0.5;entryY=0;entryDx=0;entryDy=0;entryPerimeter=0;" edge="1" target="88" parent="1" source="66">
                    <mxGeometry width="50" height="50" relative="1" as="geometry">
                        <mxPoint x="430" y="481" as="sourcePoint"/>
                        <mxPoint x="-160" y="371" as="targetPoint"/>
                    </mxGeometry>
                </mxCell>
                <mxCell id="100" value="" style="endArrow=classic;html=1;shadow=0;align=center;entryX=0;entryY=1;entryDx=0;entryDy=0;exitX=1;exitY=0.5;exitDx=0;exitDy=0;strokeColor=#000000;" edge="1" parent="1" source="86" target="79">
                    <mxGeometry width="50" height="50" relative="1" as="geometry">
                        <mxPoint x="410" y="591" as="sourcePoint"/>
                        <mxPoint x="469" y="591" as="targetPoint"/>
                    </mxGeometry>
                </mxCell>
                <mxCell id="102" value="" style="endArrow=classic;html=1;shadow=0;align=center;entryX=0.5;entryY=1;entryDx=0;entryDy=0;exitX=1;exitY=0.5;exitDx=0;exitDy=0;strokeColor=#000000;entryPerimeter=0;" edge="1" parent="1" source="86" target="80">
                    <mxGeometry width="50" height="50" relative="1" as="geometry">
                        <mxPoint x="530" y="561" as="sourcePoint"/>
                        <mxPoint x="590" y="561" as="targetPoint"/>
                        <Array as="points">
                            <mxPoint x="550" y="551"/>
                        </Array>
                    </mxGeometry>
                </mxCell>
                <mxCell id="103" value="&lt;span&gt;页中间目录&lt;/span&gt;" style="text;html=1;align=center;verticalAlign=middle;resizable=0;points=[];autosize=1;strokeColor=none;labelBorderColor=none;fontColor=#000000;" vertex="1" parent="1">
                    <mxGeometry x="449.5" y="501" width="80" height="20" as="geometry"/>
                </mxCell>
                <mxCell id="106" value="&lt;span&gt;页全局目录&lt;/span&gt;" style="text;html=1;align=center;verticalAlign=middle;resizable=0;points=[];autosize=1;strokeColor=none;labelBorderColor=none;fontColor=#000000;" vertex="1" parent="1">
                    <mxGeometry x="210" y="561" width="80" height="20" as="geometry"/>
                </mxCell>
                <mxCell id="116" value="" style="edgeStyle=none;html=1;" edge="1" parent="1" source="107" target="109">
                    <mxGeometry relative="1" as="geometry"/>
                </mxCell>
                <mxCell id="107" value="" style="whiteSpace=wrap;html=1;fillColor=none;strokeColor=#000000;fontColor=#000000;" vertex="1" parent="1">
                    <mxGeometry x="220" y="581" width="60" height="20" as="geometry"/>
                </mxCell>
                <mxCell id="108" value="" style="whiteSpace=wrap;html=1;strokeColor=#000000;fontColor=#000000;fillColor=#BFBFBF;" vertex="1" parent="1">
                    <mxGeometry x="220" y="601" width="60" height="20" as="geometry"/>
                </mxCell>
                <mxCell id="109" value="" style="whiteSpace=wrap;html=1;fillColor=none;strokeColor=#000000;fontColor=#000000;" vertex="1" parent="1">
                    <mxGeometry x="220" y="621" width="60" height="20" as="geometry"/>
                </mxCell>
                <mxCell id="110" value="" style="verticalLabelPosition=bottom;verticalAlign=top;html=1;shape=mxgraph.flowchart.summing_function;" vertex="1" parent="1">
                    <mxGeometry x="180" y="601" width="20" height="20" as="geometry"/>
                </mxCell>
                <mxCell id="111" value="" style="endArrow=classic;html=1;shadow=0;align=center;entryX=0;entryY=0.5;entryDx=0;entryDy=0;exitX=1;exitY=0.5;exitDx=0;exitDy=0;strokeColor=#000000;exitPerimeter=0;" edge="1" source="110" target="108" parent="1">
                    <mxGeometry width="50" height="50" relative="1" as="geometry">
                        <mxPoint x="-400" y="470" as="sourcePoint"/>
                        <mxPoint x="-350" y="470" as="targetPoint"/>
                    </mxGeometry>
                </mxCell>
                <mxCell id="112" value="" style="endArrow=classic;html=1;shadow=0;align=center;entryX=0;entryY=1;entryDx=0;entryDy=0;exitX=1;exitY=0.5;exitDx=0;exitDy=0;strokeColor=#000000;" edge="1" source="108" parent="1" target="93">
                    <mxGeometry width="50" height="50" relative="1" as="geometry">
                        <mxPoint x="316" y="660.6" as="sourcePoint"/>
                        <mxPoint x="340" y="621" as="targetPoint"/>
                    </mxGeometry>
                </mxCell>
                <mxCell id="114" value="" style="endArrow=classic;html=1;shadow=0;align=center;entryX=0.5;entryY=1;entryDx=0;entryDy=0;exitX=1;exitY=0.5;exitDx=0;exitDy=0;strokeColor=#000000;entryPerimeter=0;" edge="1" parent="1" source="108" target="94">
                    <mxGeometry width="50" height="50" relative="1" as="geometry">
                        <mxPoint x="290" y="621" as="sourcePoint"/>
                        <mxPoint x="350" y="621" as="targetPoint"/>
                        <Array as="points">
                            <mxPoint x="310" y="611"/>
                        </Array>
                    </mxGeometry>
                </mxCell>
                <mxCell id="115" value="" style="endArrow=classic;html=1;shadow=0;align=center;strokeColor=#000000;exitX=0.25;exitY=1;exitDx=0;exitDy=0;entryX=0.5;entryY=0;entryDx=0;entryDy=0;entryPerimeter=0;" edge="1" parent="1" source="68" target="110">
                    <mxGeometry width="50" height="50" relative="1" as="geometry">
                        <mxPoint x="320" y="430" as="sourcePoint"/>
                        <mxPoint x="320" y="581" as="targetPoint"/>
                    </mxGeometry>
                </mxCell>
                <mxCell id="117" value="" style="whiteSpace=wrap;html=1;strokeColor=#000000;fontColor=#000000;fillColor=#BFBFBF;" vertex="1" parent="1">
                    <mxGeometry x="100" y="630" width="60" height="20" as="geometry"/>
                </mxCell>
                <mxCell id="119" value="" style="endArrow=classic;html=1;shadow=0;align=center;exitX=1;exitY=0.5;exitDx=0;exitDy=0;strokeColor=#000000;entryX=0;entryY=1;entryDx=0;entryDy=0;" edge="1" parent="1" source="117" target="109">
                    <mxGeometry width="50" height="50" relative="1" as="geometry">
                        <mxPoint x="170" y="650" as="sourcePoint"/>
                        <mxPoint x="230" y="651" as="targetPoint"/>
                    </mxGeometry>
                </mxCell>
                <mxCell id="120" value="" style="endArrow=classic;html=1;shadow=0;align=center;exitX=1;exitY=0.5;exitDx=0;exitDy=0;strokeColor=#000000;entryX=0.5;entryY=1;entryDx=0;entryDy=0;entryPerimeter=0;" edge="1" parent="1" source="117" target="110">
                    <mxGeometry width="50" height="50" relative="1" as="geometry">
                        <mxPoint x="180" y="660" as="sourcePoint"/>
                        <mxPoint x="240" y="661" as="targetPoint"/>
                        <Array as="points">
                            <mxPoint x="190" y="640"/>
                        </Array>
                    </mxGeometry>
                </mxCell>
                <mxCell id="121" value="cr3" style="text;html=1;align=center;verticalAlign=middle;resizable=0;points=[];autosize=1;strokeColor=none;labelBorderColor=none;fontColor=#000000;" vertex="1" parent="1">
                    <mxGeometry x="115" y="610" width="30" height="20" as="geometry"/>
                </mxCell>
            </root>
        </mxGraphModel>
    </diagram>
</mxfile>